<?xml version="1.0"?>
<svg xmlns="http://www.w3.org/2000/svg" height="512px" viewBox="-32 0 496 496.008" width="512px"><g><path d="m432.003906 116.320312c0-34.96875-20.695312-66.609374-52.734375-80.617187l-81.59375-35.703125h-163.34375l-81.59375 35.703125c-32.039062 14.007813-52.73437475 45.648437-52.73437475 80.617187v283.679688h63.99999975v96h101.433594c14.320312 0 27.621094-7.726562 34.726562-20.160156l15.839844-27.710938 15.839844 27.71875c7.105469 12.433594 20.410156 20.160156 34.726562 20.160156h101.433594v-96.007812h64zm-16 0v219.679688h-48v-184c0-22.535156 10.769532-44.070312 28.800782-57.601562l12.128906-9.09375c4.542968 9.503906 7.070312 20.046874 7.070312 31.015624zm-200-47.632812-52.6875-52.6875h105.375zm21.753906 43.648438-17.753906 23.664062h-8l-17.441406-23.246094 21.511719-21.515625zm-23.503906 39.664062h3.503906l13.886719 55.519531-15.640625 41.695313-15.640625-41.703125zm27.277344 29.136719-8.839844-35.382813 16.617188-22.160156 10.113281 9.839844zm-58.390625-56.960938 16.175781 21.578125-8.839844 35.382813-17.535156-46.761719zm11.023437 112.367188-61.929687-67.085938 29.417969-19.609375zm76.191407-86.695313 29.417969 19.609375-61.929688 67.085938zm49.367187-122.742187-7.238281 86.804687-32.304687 9.753906 36.679687-97.816406zm-17.550781-7.671875-36.617187 97.636718-38.160157-37.148437 63.921875-63.921875h3.015625zm-164.496094-3.433594h3.015625l64 64-.078125.078125-37.839843 37.84375-36.9375-98.488281zm14.160157 107.671875-32.304688-9.75-7.246094-86.816406 2.863282-1.257813zm-87.832032 212.328125h-48v-219.679688c0-10.96875 2.527344-21.511718 7.070313-31.015624l12.121093 9.09375c18.039063 13.53125 28.808594 35.066406 28.808594 57.601562zm-48 48v-32h48v32zm170.265625 83.902344c-4.265625 7.464844-12.25 12.097656-20.832031 12.097656h-85.433594v-328c0-27.542969-13.160156-53.863281-35.199218-70.398438l-13.136719-9.847656c7.175781-9.074218 16.433593-16.570312 27.472656-21.394531l37.65625-16.480469 7.679687 92.199219 44.039063 13.289063-40.742187 27.160156 100.230468 108.601562v154.742188zm165.734375 12.097656h-85.433594c-8.582031 0-16.566406-4.632812-20.832031-12.097656l-21.734375-38.03125v-154.742188l100.230469-108.59375-40.742187-27.160156 44.039062-13.285156 7.671875-92.210938 37.65625 16.480469c11.039063 4.832031 20.296875 12.320313 27.472656 21.394531l-13.136719 9.847656c-22.03125 16.535157-35.191406 42.855469-35.191406 70.398438zm16-96v-32h48v32zm0 0" data-original="#000000" class="active-path" data-old_color="#5e5e5e" fill="#5e5e5e"/><path d="m264.003906 400c-13.230468 0-24 10.769531-24 24s10.769532 24 24 24c13.230469 0 24-10.769531 24-24s-10.769531-24-24-24zm0 32c-4.414062 0-8-3.585938-8-8s3.585938-8 8-8c4.417969 0 8 3.585938 8 8s-3.582031 8-8 8zm0 0" data-original="#000000" class="active-path" data-old_color="#5e5e5e" fill="#5e5e5e"/><path d="m264.003906 336c-13.230468 0-24 10.769531-24 24s10.769532 24 24 24c13.230469 0 24-10.769531 24-24s-10.769531-24-24-24zm0 32c-4.414062 0-8-3.585938-8-8s3.585938-8 8-8c4.417969 0 8 3.585938 8 8s-3.582031 8-8 8zm0 0" data-original="#000000" class="active-path" data-old_color="#5e5e5e" fill="#5e5e5e"/><path d="m264.003906 272c-13.230468 0-24 10.769531-24 24s10.769532 24 24 24c13.230469 0 24-10.769531 24-24s-10.769531-24-24-24zm0 32c-4.414062 0-8-3.585938-8-8s3.585938-8 8-8c4.417969 0 8 3.585938 8 8s-3.582031 8-8 8zm0 0" data-original="#000000" class="active-path" data-old_color="#5e5e5e" fill="#5e5e5e"/><path d="m96.003906 376v64c0 13.230469 10.769532 24 24 24h32c13.230469 0 24-10.769531 24-24v-72h-80zm56 72h-32c-4.414062 0-8-3.585938-8-8v-25.472656c2.511719.898437 5.183594 1.472656 8 1.472656h32c2.816406 0 5.488282-.574219 8-1.472656v25.472656c0 4.414062-3.582031 8-8 8zm8-56c0 4.414062-3.582031 8-8 8h-32c-4.414062 0-8-3.585938-8-8v-8h48zm0 0" data-original="#000000" class="active-path" data-old_color="#5e5e5e" fill="#5e5e5e"/></g> </svg>
